HIERARCHY
ROOT hip
{
	OFFSET 0.000000 0.000000 0.000000 
	CHANNELS 6 Xposition Yposition Zposition Xrotation Zrotation Yrotation
	JOINT abdomen
	{
		OFFSET 0.000000 3.402643 0.000000 
		CHANNELS 3 Xrotation Zrotation Yrotation
		JOINT chest
		{
			OFFSET 0.000000 8.438565 -0.680529 
			CHANNELS 3 Xrotation Zrotation Yrotation
			JOINT neck
			{
				OFFSET 0.000000 10.207942 -0.272212 
				CHANNELS 3 Xrotation Zrotation Yrotation
				JOINT head
				{
					OFFSET 0.000000 3.130431 0.000000 
					CHANNELS 3 Xrotation Zrotation Yrotation
					End Site
					{
						OFFSET 0.000000 3.130435 0.000000 
					}
				}
			}
			JOINT lCollar
			{
				OFFSET 3.470700 6.669187 -0.816635 
				CHANNELS 3 Yrotation Zrotation Xrotation
				JOINT lShldr
				{
					OFFSET 3.198488 0.000000 0.000000 
					CHANNELS 3 Zrotation Yrotation Xrotation
					JOINT lForeArm
					{
						OFFSET 10.139888 0.000000 0.000000 
						CHANNELS 3 Yrotation Zrotation Xrotation
						JOINT lHand
						{
							OFFSET 8.370511 0.000000 0.000000 
							CHANNELS 3 Zrotation Yrotation Xrotation
							End Site
							{
								OFFSET 4.083176 0.000000 0.000000 
							}
						}
					}
				}
			}
			JOINT rCollar
			{
				OFFSET -3.470700 6.669187 -0.816635 
				CHANNELS 3 Yrotation Zrotation Xrotation
				JOINT rShldr
				{
					OFFSET -3.198488 0.000000 0.000000 
					CHANNELS 3 Zrotation Yrotation Xrotation
					JOINT rForeArm
					{
						OFFSET -10.139888 0.000000 0.000000 
						CHANNELS 3 Yrotation Zrotation Xrotation
						JOINT rHand
						{
							OFFSET -8.370511 0.000000 0.000000 
							CHANNELS 3 Zrotation Yrotation Xrotation
							End Site
							{
								OFFSET -4.083176 0.000000 0.000000 
							}
						}
					}
				}
			}
		}
	}
	JOINT lThigh
	{
		OFFSET 5.308129 -1.633274 1.361059 
		CHANNELS 3 Xrotation Zrotation Yrotation
		JOINT lShin
		{
			OFFSET -2.041588 -20.007561 0.000000 
			CHANNELS 3 Xrotation Zrotation Yrotation
			JOINT lFoot
			{
				OFFSET 0.000000 -19.190928 -1.224953 
				CHANNELS 3 Xrotation Yrotation Zrotation
				End Site
				{
					OFFSET 0.000000 -2.449906 4.627600 
				}
			}
		}
	}
	JOINT rThigh
	{
		OFFSET -5.308129 -1.633274 1.361059 
		CHANNELS 3 Xrotation Zrotation Yrotation
		JOINT rShin
		{
			OFFSET 2.041588 -20.007561 0.000000 
			CHANNELS 3 Xrotation Zrotation Yrotation
			JOINT rFoot
			{
				OFFSET 0.000000 -19.190928 -1.224953 
				CHANNELS 3 Xrotation Yrotation Zrotation
				End Site
				{
					OFFSET 0.000000 -2.449906 4.627600 
				}
			}
		}
	}
}
MOTION
Frames: 16
Frame Time: 0.016667
-0.924351 50.227959 25.725264 5.590437 3.320640 -49.800900 21.502056 -0.373143 -11.552994 -6.989414 0.923822 -5.264246 51.558491 8.067881 2.614341 -63.984364 7.671649 -14.190853 5.332725 -15.354373 10.691282 -16.572548 -2.901657 -34.794609 -93.466156 0.151317 -2.741382 32.985260 -7.200397 16.395294 -13.338815 24.992943 19.712313 29.134466 -23.373461 -3.870816 86.597488 0.139286 -3.044879 -39.553577 -55.989685 19.407377 -7.928942 17.406321 17.537920 29.995653 -4.928194 -3.307915 7.152912 11.419615 3.400933 -13.401143 -5.379736 11.755438 12.708159 5.638942 1.632057 2.776825 0.069795 14.597814 
-1.114516 50.081650 25.252954 5.223849 2.598502 -49.218609 21.907274 -0.852554 -11.212296 -6.988375 0.496008 -5.185690 51.558491 8.067881 2.614341 -64.595001 6.164860 -13.094085 5.265199 -15.726041 10.671034 -17.611464 -1.671980 -35.774597 -92.064514 0.177477 -2.803549 32.412060 -6.513548 16.614346 -13.368243 25.000000 19.767750 28.701233 -22.696253 -2.273125 86.422974 0.221674 -3.032701 -39.938976 -55.998070 19.940159 -8.788857 18.846436 16.399096 32.027470 -4.874757 -3.284297 10.116755 10.183629 3.760333 -13.378060 -4.658048 10.193386 14.481767 5.592552 1.801883 1.987227 0.282730 14.659193 
-1.304924 49.934895 24.780182 4.842866 1.885567 -48.628937 22.298866 -1.342656 -10.872297 -6.977872 0.058361 -5.107419 51.558491 8.067881 2.614341 -65.226685 4.662231 -11.983427 5.192705 -16.088892 10.639111 -18.677052 -0.468449 -36.784061 -90.665741 0.211935 -2.860679 31.839815 -5.832776 16.835682 -13.403008 24.995008 19.822752 28.295393 -22.006989 -0.688950 86.243652 0.304290 -3.024881 -40.335190 -56.014164 20.491213 -9.676598 20.257521 15.203699 34.047764 -4.821550 -3.191740 13.065391 8.916860 4.196799 -13.375549 -3.935234 8.643064 16.235037 5.544873 1.940650 1.195109 0.520541 14.733037 
-1.536506 49.713478 24.228800 4.527492 1.232129 -47.856350 22.893351 -1.892739 -10.318424 -7.155535 -0.369714 -4.941556 51.558491 8.067881 2.614341 -66.011734 3.355587 -10.975739 5.089994 -16.639969 10.498694 -19.767767 1.114256 -37.653744 -89.703522 0.304953 -2.916272 32.888493 -5.472393 16.485619 -13.454716 24.992298 19.907696 28.070002 -21.076767 0.772175 85.983841 0.204543 -3.047788 -40.874920 -56.510921 21.051121 -11.083211 21.803007 13.973279 35.895271 -4.665123 -3.440482 17.626368 7.310151 4.969673 -13.469062 -3.319425 6.559274 17.997250 5.474900 2.240718 0.155661 1.095835 14.460306 
-1.768154 49.492008 23.677147 4.194871 0.585202 -47.083248 23.490294 -2.463824 -9.765224 -7.326045 -0.798013 -4.766114 51.558491 8.067881 2.614341 -66.816025 2.058451 -9.947553 4.986269 -17.200150 10.356330 -20.893089 2.685118 -38.558235 -88.740425 0.416502 -2.975722 33.941730 -5.098309 16.144089 -13.502010 24.991777 19.984015 27.873999 -20.140768 2.217407 85.720276 0.124677 -3.074646 -41.429871 -57.001312 21.623383 -12.537792 23.296486 12.706769 37.740345 -4.494208 -3.661214 22.158665 5.719968 5.901349 -13.599083 -2.723891 4.485968 19.772263 5.405709 2.492408 -0.879095 1.674335 14.197458 
-2.010597 49.262665 23.082273 3.872134 -0.060723 -46.298866 24.092129 -3.037155 -9.144311 -7.489410 -1.226522 -4.591089 51.558491 8.067881 2.614341 -67.788818 0.771539 -9.043720 4.958195 -17.913214 10.285022 -21.835869 4.325167 -39.770683 -88.028801 0.162427 -3.046077 35.247227 -4.935750 15.495573 -13.346337 24.991957 19.833944 27.757151 -19.175316 3.037043 85.721367 0.201987 -3.053655 -41.556061 -57.012917 21.891088 -13.669841 24.623123 11.468629 38.717628 -4.513884 -3.876943 26.234148 4.720892 7.230547 -13.680027 -2.089322 2.316871 21.711241 5.355648 2.701969 -1.708730 2.004035 13.916215 
-2.252939 49.033588 22.487753 3.556560 -0.711743 -45.512413 24.692780 -3.621775 -8.523291 -7.654644 -1.664967 -4.416168 51.558491 8.067881 2.614341 -68.787109 -0.493059 -8.115604 4.942952 -18.633280 10.227478 -22.828747 5.940009 -41.018753 -87.317505 -0.082667 -3.112908 36.558167 -4.758908 14.843184 -13.186245 24.993793 19.675108 27.649122 -18.215702 3.846115 85.723541 0.289065 -3.033462 -41.683071 -57.024536 22.158520 -14.813138 25.923697 10.201795 39.675186 -4.539174 -4.074234 30.282959 3.804275 8.647076 -13.793558 -1.464465 0.167928 23.656836 5.311317 2.911807 -2.568049 2.292974 13.677006 
-2.481747 48.843788 21.943575 3.230962 -1.239072 -44.544468 25.381386 -4.238360 -7.756397 -7.912010 -2.006515 -4.123691 51.558491 8.067881 2.614341 -69.854477 -1.647564 -7.063510 4.925463 -19.264338 10.152578 -23.789063 7.486401 -42.278774 -86.706635 0.011818 -2.985141 37.692089 -4.287765 14.227782 -13.108420 24.993368 19.599941 27.618114 -17.495806 4.275286 86.160286 0.209220 -3.036164 -41.819954 -56.584557 22.307375 -15.749600 26.097582 9.548321 40.997620 -4.432326 -3.996707 29.472403 5.086552 9.179248 -13.940188 -0.956915 -1.351642 25.155828 5.341527 2.902782 -3.236565 2.637592 14.039886 
-2.711921 48.652733 21.401098 2.896745 -1.762000 -43.580574 26.066504 -4.875692 -6.998760 -8.162441 -2.358006 -3.831709 51.558491 8.067881 2.614341 -70.948181 -2.787488 -5.983712 4.900184 -19.896088 10.088070 -24.774836 9.009759 -43.554226 -86.087601 0.116936 -2.865942 38.827206 -3.792168 13.614638 -13.026165 24.995005 19.511990 27.589708 -16.788151 4.706596 86.601646 0.119382 -3.036069 -41.934559 -56.143684 22.431351 -16.688042 26.256332 8.864444 42.339642 -4.315603 -3.895339 28.611374 6.367629 9.735652 -14.096040 -0.459101 -2.861261 26.657774 5.393432 2.900932 -3.928722 2.982337 14.367957 
-3.159837 48.261272 21.129063 2.617738 -2.222584 -42.588799 26.668566 -5.464858 -6.318024 -8.331948 -2.797338 -3.559025 51.558491 8.067881 2.614341 -72.125099 -3.901611 -4.923954 4.878595 -20.438086 9.999357 -25.650194 10.345379 -44.600773 -85.475784 0.120221 -2.889217 39.577248 -3.343534 13.048239 -12.786767 24.998657 19.377827 27.384178 -16.548161 4.847726 87.218559 0.044200 -3.026690 -41.983860 -55.440853 22.562332 -17.526434 25.941351 8.385024 43.731476 -4.227992 -4.233943 22.993721 9.072845 8.093220 -13.982800 0.029187 -4.302679 28.061007 5.241712 2.923440 -6.739562 3.073279 13.906141 
-3.607159 47.870918 20.856663 2.333472 -2.673987 -41.608139 27.268417 -6.064399 -5.647675 -8.495869 -3.236866 -3.287038 51.558491 8.067881 2.614341 -73.336555 -4.998559 -3.843325 4.849349 -20.980762 9.920712 -26.559050 11.650577 -45.682896 -84.863106 0.132891 -2.914828 40.329861 -2.890531 12.489230 -12.556278 24.998579 19.238838 27.181929 -16.302879 4.978789 87.836372 -0.030907 -3.016810 -42.006676 -54.752628 22.665083 -18.366743 25.620699 7.902344 45.134769 -4.114217 -4.531960 17.412933 11.895299 6.725483 -13.860577 0.537042 -5.752276 29.467331 5.095189 2.944023 -9.519567 3.167840 13.418335 
-3.964993 47.653442 20.524418 2.117432 -3.071245 -40.451080 27.698483 -6.742008 -5.006178 -8.670441 -3.588889 -2.984895 51.558491 8.067881 2.614341 -74.526855 -5.999896 -2.563438 4.786090 -21.349180 9.884780 -27.629770 12.738320 -47.164722 -84.330528 0.147420 -2.938821 39.845360 -2.614113 12.220986 -12.395590 24.992207 19.166431 26.934835 -15.937191 5.051488 88.544319 -0.020664 -2.985048 -42.248322 -54.148270 22.899168 -18.912966 25.102390 7.767959 45.985970 -3.987172 -4.572804 10.425290 15.059307 5.503584 -13.980632 0.868976 -7.179710 30.897068 5.085930 3.027517 -10.493477 3.098600 13.328660 
-4.323292 47.437775 20.193150 1.896915 -3.456651 -39.294678 28.114073 -7.429822 -4.363023 -8.838750 -3.931218 -2.691944 51.558491 8.067881 2.614341 -75.745575 -6.970988 -1.259722 4.710910 -21.709385 9.845728 -28.739159 13.805753 -48.676754 -83.805428 0.142639 -2.958067 39.359459 -2.342508 11.949422 -12.233808 24.995506 19.102917 26.675262 -15.574537 5.134380 89.246017 -0.009800 -2.962403 -42.488338 -53.547924 23.118906 -19.479500 24.585108 7.616291 46.866348 -3.877234 -4.573706 3.372265 18.307018 4.669795 -14.091390 1.181149 -8.595285 32.325993 5.076293 3.083231 -11.461432 3.080082 13.239844 
-4.750955 47.504993 20.017187 1.784088 -3.593852 -38.057098 28.264277 -7.990376 -3.807543 -9.001114 -4.283396 -2.390012 51.558491 8.067881 2.614341 -76.957344 -7.929511 0.383954 4.634313 -21.980545 9.790488 -30.089670 14.634577 -50.494480 -83.360023 -0.013780 -2.930415 38.230247 -1.842274 11.872031 -12.033773 24.994337 18.966297 26.096134 -14.999570 5.305599 89.778427 -0.003926 -3.019247 -43.215176 -53.282345 23.176392 -19.604773 24.182396 8.013799 46.802910 -4.026494 -4.493734 -1.414350 20.504204 4.434293 -13.372245 1.514027 -9.916542 31.587132 5.106555 3.093789 -11.130271 2.793088 12.956137 
-5.177442 47.572876 19.841585 1.670519 -3.724157 -36.819633 28.403522 -8.550890 -3.249740 -9.176969 -4.635609 -2.087477 51.558491 8.067881 2.614341 -78.195808 -8.851865 2.045485 4.557146 -22.251547 9.735414 -31.458448 15.425304 -52.326340 -82.910599 -0.170119 -2.903283 37.101139 -1.338421 11.785159 -11.833704 24.992447 18.825336 25.536194 -14.428531 5.471060 90.312271 0.001398 -3.070120 -43.927937 -53.026760 23.216841 -19.751348 23.772320 8.390727 46.709545 -4.192358 -4.389395 -6.218926 22.678455 4.350475 -12.660363 1.845960 -11.225032 30.874491 5.155594 3.111565 -10.808501 2.529101 12.675489 
-5.418023 47.746849 19.722576 1.726630 -3.655575 -35.414997 28.274113 -9.081133 -2.799906 -9.339117 -4.987584 -1.872603 51.558491 8.067881 2.614341 -79.323792 -9.701530 4.150022 4.619835 -22.519623 9.714112 -32.735569 16.285246 -54.104465 -82.572014 -0.092915 -2.935171 36.163345 -0.864799 11.678223 -11.881217 24.996504 18.858519 24.931135 -14.181526 6.093187 90.930275 -0.082726 -2.971869 -44.675125 -52.836514 22.993496 -19.174965 23.527210 10.042125 45.124962 -4.328653 -4.179616 -7.256821 22.070192 4.467066 -12.613478 1.855538 -12.873728 30.700874 4.989889 3.053950 -9.394890 2.559045 12.725157 
